<svg width="126" height="42" viewBox="0 0 126 42" fill="none" xmlns="http://www.w3.org/2000/svg">
<path d="M47.7754 29.3125C47.6191 28.7188 47.291 28.2344 46.791 27.8594C46.291 27.4844 45.6973 27.2344 45.0098 27.1094C44.4941 27.0312 43.9551 26.9688 43.3926 26.9219C42.8301 26.875 42.2129 26.8281 41.541 26.7812C41.5566 28.3438 41.5723 29.8906 41.5879 31.4219C41.6035 32.9531 41.6582 34.4922 41.7519 36.0391C41.8144 36.9922 42.0566 37.8047 42.4785 38.4766C42.9004 39.1328 43.541 39.6016 44.4004 39.8828V40H35.4707V39.8828C36.3613 39.5859 36.9863 39.0938 37.3457 38.4062C37.7207 37.7031 37.9473 36.8828 38.0254 35.9453C38.1348 33.5234 38.2207 31.2734 38.2832 29.1953C38.3613 27.1016 38.4004 25.0703 38.4004 23.1016C38.4004 21.3516 38.3848 19.6172 38.3535 17.8984C38.3379 16.1641 38.2363 14.3594 38.0488 12.4844C37.9707 11.6406 37.7207 10.9219 37.2988 10.3281C36.8769 9.71875 36.2676 9.28125 35.4707 9.01562V8.89844H49.0644C48.9394 9.50781 48.7988 10.1172 48.6426 10.7266C48.5176 11.2422 48.3769 11.7891 48.2207 12.3672C48.0644 12.9453 47.9238 13.4609 47.7988 13.9141H47.7051C47.7988 13.1953 47.6738 12.625 47.3301 12.2031C47.0019 11.7812 46.5488 11.4609 45.9707 11.2422C45.4082 11.0234 44.7598 10.875 44.0254 10.7969C43.291 10.7188 42.5644 10.6641 41.8457 10.6328C41.7363 12.8984 41.6582 15.1328 41.6113 17.3359C41.5644 19.5391 41.541 21.75 41.541 23.9688V24.9766C42.1973 24.9766 42.8066 24.9531 43.3691 24.9062C43.9316 24.8438 44.4941 24.7656 45.0566 24.6719C45.8535 24.5312 46.4707 24.2734 46.9082 23.8984C47.3613 23.5078 47.6504 23.0156 47.7754 22.4219H47.8457V29.3125H47.7754ZM54.7832 24.25L50.7988 21.7891C51.0019 20.6797 51.3066 19.7969 51.7129 19.1406C52.1348 18.4688 52.5957 17.9609 53.0957 17.6172C53.6113 17.2578 54.1504 17.0234 54.7129 16.9141C55.291 16.8047 55.8535 16.75 56.4004 16.75C58.3379 16.75 59.7832 17.4453 60.7363 18.8359C61.7051 20.2266 62.1816 22.2812 62.166 25C62.166 26.4219 62.1582 27.6562 62.1426 28.7031C62.1426 29.7344 62.1426 30.6172 62.1426 31.3516C62.1426 32.0859 62.1348 32.6953 62.1191 33.1797C62.1191 33.6484 62.1191 34.0391 62.1191 34.3516C62.1191 34.6484 62.1191 34.8906 62.1191 35.0781C62.1191 35.2656 62.1191 35.4375 62.1191 35.5938C62.1191 35.9844 62.1426 36.3984 62.1894 36.8359C62.2363 37.2734 62.3301 37.6953 62.4707 38.1016C62.6269 38.4922 62.8457 38.8516 63.1269 39.1797C63.4238 39.4922 63.8144 39.7266 64.2988 39.8828V40H60.666C60.3066 39.7812 60.0332 39.4844 59.8457 39.1094C59.6582 38.7344 59.5176 38.3203 59.4238 37.8672C59.3301 38.0547 59.1816 38.3125 58.9785 38.6406C58.7754 38.9531 58.5098 39.2656 58.1816 39.5781C57.8535 39.875 57.4551 40.1328 56.9863 40.3516C56.5332 40.5703 56.0019 40.6797 55.3926 40.6797C54.5019 40.6797 53.7285 40.5 53.0723 40.1406C52.4316 39.7812 51.9004 39.2969 51.4785 38.6875C51.0566 38.0781 50.7441 37.3828 50.541 36.6016C50.3379 35.8047 50.2363 34.9844 50.2363 34.1406C50.2363 33.0625 50.4004 31.9922 50.7285 30.9297C51.0723 29.8516 51.5488 28.8906 52.1582 28.0469C52.7832 27.1875 53.5254 26.4922 54.3848 25.9609C55.2441 25.4297 56.2051 25.1641 57.2676 25.1641C57.7988 25.1641 58.3066 25.2188 58.791 25.3281C58.791 24.0781 58.7363 23.0547 58.6269 22.2578C58.5176 21.4609 58.3535 20.8359 58.1348 20.3828C57.916 19.9297 57.6348 19.625 57.291 19.4688C56.9629 19.2969 56.5801 19.2109 56.1426 19.2109C55.7676 19.2109 55.4473 19.2734 55.1816 19.3984C54.9316 19.5234 54.7207 19.6953 54.5488 19.9141C54.3926 20.1328 54.2754 20.3906 54.1973 20.6875C54.1348 20.9688 54.1035 21.2734 54.1035 21.6016C54.1035 22.0391 54.166 22.4844 54.291 22.9375C54.4316 23.3906 54.6113 23.8047 54.8301 24.1797L54.7832 24.25ZM55.791 38.1953C56.3848 38.1953 56.8691 37.9766 57.2441 37.5391C57.6348 37.0859 57.9394 36.5312 58.1582 35.875C58.3926 35.2188 58.5566 34.5234 58.6504 33.7891C58.7441 33.0391 58.791 32.3672 58.791 31.7734V27.2969C58.3379 27.1406 57.8848 27.0625 57.4316 27.0625C56.8066 27.0625 56.2519 27.25 55.7676 27.625C55.2832 27.9844 54.8769 28.4609 54.5488 29.0547C54.2207 29.6484 53.9707 30.3359 53.7988 31.1172C53.6269 31.8984 53.541 32.6953 53.541 33.5078C53.541 34.1328 53.5879 34.7266 53.6816 35.2891C53.7754 35.8516 53.916 36.3516 54.1035 36.7891C54.291 37.2109 54.5254 37.5547 54.8066 37.8203C55.0879 38.0703 55.416 38.1953 55.791 38.1953ZM71.4238 19.9375C71.8769 18.9375 72.4863 18.1562 73.2519 17.5938C74.0176 17.0312 74.8223 16.75 75.666 16.75C76.3066 16.75 76.9394 16.9297 77.5644 17.2891C78.1894 17.6328 78.7676 18.1797 79.2988 18.9297L76.791 23.0312L76.7207 22.9844C76.8144 22.7344 76.8613 22.3984 76.8613 21.9766C76.8613 21.6797 76.8301 21.3672 76.7676 21.0391C76.7051 20.7109 76.6035 20.4141 76.4629 20.1484C76.3379 19.8672 76.1738 19.6406 75.9707 19.4688C75.7676 19.2969 75.5176 19.2109 75.2207 19.2109C74.8457 19.2109 74.4551 19.3594 74.0488 19.6562C73.6582 19.9375 73.2988 20.3438 72.9707 20.875C72.6426 21.4062 72.3691 22.0547 72.1504 22.8203C71.9316 23.5703 71.8223 24.4219 71.8223 25.375C71.8223 27.4219 71.8223 29.4453 71.8223 31.4453C71.8379 33.4297 71.9082 35.4297 72.0332 37.4453C72.1113 38.6797 72.6816 39.4922 73.7441 39.8828V40H66.1269V39.8828C66.9238 39.7109 67.4941 39.3984 67.8379 38.9453C68.1973 38.4766 68.4004 37.9453 68.4473 37.3516C68.5254 35.8047 68.5879 34.3516 68.6348 32.9922C68.6816 31.6172 68.7051 30.2734 68.7051 28.9609C68.7051 26.9766 68.6894 25.3281 68.6582 24.0156C68.6269 22.7031 68.5019 21.6562 68.2832 20.875C68.0801 20.0938 67.7441 19.5469 67.2754 19.2344C66.8223 18.9062 66.166 18.7422 65.3066 18.7422V18.625L71.6582 16.75C71.5332 17.1719 71.4629 17.6641 71.4473 18.2266C71.4316 18.7734 71.4238 19.3438 71.4238 19.9375ZM85.6738 8.42969C85.5019 10.6641 85.4082 13.0938 85.3926 15.7188C85.3926 18.3281 85.3926 21.0781 85.3926 23.9688V27.5547C85.7676 26.8359 86.166 26.0625 86.5879 25.2344C86.9473 24.5312 87.3535 23.7344 87.8066 22.8438C88.2598 21.9375 88.7285 21.0078 89.2129 20.0547C89.6035 19.2891 90.0019 18.5938 90.4082 17.9688C90.8144 17.3281 91.2676 16.7812 91.7676 16.3281C92.2832 15.8594 92.8535 15.4922 93.4785 15.2266C94.1035 14.9609 94.8223 14.8125 95.6348 14.7812L96.9941 19.6797L96.8535 19.8203C96.4941 19.4453 96.1191 19.2109 95.7285 19.1172C95.3535 19.0234 95.041 18.9766 94.791 18.9766C94.3379 18.9766 93.9238 19.1484 93.5488 19.4922C93.1894 19.8203 92.8301 20.2812 92.4707 20.875C92.0801 21.5156 91.6738 22.1797 91.2519 22.8672C90.8301 23.5547 90.4394 24.1875 90.0801 24.7656C89.6582 25.4375 89.2441 26.1016 88.8379 26.7578L93.5254 34.6797C93.9629 35.4297 94.3613 36 94.7207 36.3906C95.0801 36.7812 95.5098 36.9766 96.0098 36.9766C96.4473 36.9766 97.0098 36.7891 97.6973 36.4141L97.8379 36.5312L95.7051 41.4062C94.9082 41.2656 94.2519 41.0234 93.7363 40.6797C93.2363 40.3359 92.7988 39.9219 92.4238 39.4375C92.0644 38.9375 91.7285 38.375 91.416 37.75C91.1191 37.1094 90.7598 36.4219 90.3379 35.6875L87.0098 29.2891L85.4394 31.9844C85.4551 32.6719 85.4707 33.4297 85.4863 34.2578C85.5176 35.0859 85.5566 35.8359 85.6035 36.5078C85.666 37.3516 85.8848 38.0625 86.2598 38.6406C86.6348 39.2031 87.2207 39.6172 88.0176 39.8828V40H79.5566V39.8828C80.3535 39.6172 80.9238 39.1797 81.2676 38.5703C81.6113 37.9609 81.8144 37.2422 81.8769 36.4141C81.9863 33.8984 82.0723 31.5625 82.1348 29.4062C82.2129 27.25 82.2519 25.1484 82.2519 23.1016C82.2519 21.1016 82.2441 19.4062 82.2285 18.0156C82.2285 16.6094 82.1973 15.4375 82.1348 14.5C82.0723 13.5625 81.9707 12.8203 81.8301 12.2734C81.7051 11.7266 81.5098 11.3203 81.2441 11.0547C80.9941 10.7734 80.6738 10.6016 80.2832 10.5391C79.8926 10.4609 79.416 10.4219 78.8535 10.4219V10.3047L85.6738 8.42969ZM104.893 8.42969C104.721 10.6641 104.627 13.0859 104.611 15.6953C104.611 18.3047 104.611 21.0625 104.611 23.9688C104.611 26.0938 104.611 28.1953 104.611 30.2734C104.627 32.3516 104.697 34.4297 104.822 36.5078C104.885 37.3516 105.104 38.0625 105.479 38.6406C105.854 39.2031 106.439 39.6172 107.236 39.8828V40H98.7754V39.8828C99.5723 39.6172 100.143 39.1797 100.486 38.5703C100.83 37.9609 101.033 37.2422 101.096 36.4141C101.205 33.8984 101.291 31.5625 101.354 29.4062C101.432 27.25 101.471 25.1484 101.471 23.1016C101.471 21.1016 101.463 19.4062 101.447 18.0156C101.447 16.6094 101.416 15.4375 101.354 14.5C101.291 13.5625 101.189 12.8203 101.049 12.2734C100.924 11.7266 100.729 11.3203 100.463 11.0547C100.213 10.7734 99.8926 10.6016 99.5019 10.5391C99.1113 10.4609 98.6348 10.4219 98.0723 10.4219V10.3047L104.893 8.42969ZM117.549 32.0078L122.682 32.4766C122.682 33.8828 122.479 35.1016 122.072 36.1328C121.682 37.1484 121.174 38 120.549 38.6875C119.939 39.3594 119.26 39.8594 118.51 40.1875C117.76 40.5156 117.025 40.6797 116.307 40.6797C115.275 40.6797 114.314 40.4141 113.424 39.8828C112.533 39.3516 111.76 38.5781 111.104 37.5625C110.447 36.5469 109.932 35.2969 109.557 33.8125C109.182 32.3281 108.994 30.625 108.994 28.7031C108.994 26.7812 109.182 25.0781 109.557 23.5938C109.932 22.1094 110.447 20.8594 111.104 19.8438C111.76 18.8281 112.533 18.0547 113.424 17.5234C114.314 16.9922 115.275 16.7266 116.307 16.7266C117.166 16.7266 117.955 16.9609 118.674 17.4297C119.408 17.8828 120.049 18.5625 120.596 19.4688C121.143 20.3594 121.58 21.4766 121.908 22.8203C122.252 24.1484 122.463 25.6797 122.541 27.4141L112.627 30.8828C112.83 33.4453 113.283 35.3125 113.986 36.4844C114.689 37.6406 115.58 38.2188 116.658 38.2188C117.174 38.2188 117.604 38.125 117.947 37.9375C118.307 37.7344 118.596 37.4766 118.814 37.1641C119.049 36.8359 119.213 36.4766 119.307 36.0859C119.416 35.6797 119.471 35.2656 119.471 34.8438C119.471 34.3438 119.307 33.8516 118.979 33.3672C118.666 32.8828 118.182 32.4688 117.525 32.125L117.549 32.0078ZM112.51 28.7969C112.963 28.625 113.525 28.4062 114.197 28.1406C114.869 27.875 115.713 27.5078 116.729 27.0391C117.307 26.7734 117.807 26.5078 118.229 26.2422C118.65 25.9766 119.025 25.75 119.354 25.5625C119.197 23.3906 118.861 21.7891 118.346 20.7578C117.846 19.7266 117.166 19.2109 116.307 19.2109C115.104 19.2109 114.166 20.0078 113.494 21.6016C112.838 23.1953 112.51 25.5625 112.51 28.7031V28.7969Z" fill="black"/>
<g clip-path="url(#clip0)">
<path d="M22.955 9.72801L28.9089 20.0405C29.2042 20.552 29.1789 21.1879 28.8437 21.6748L22.889 30.3253C22.7582 30.5158 22.5873 30.6716 22.3921 30.7843C22.197 30.897 21.977 30.9668 21.7466 30.9849L11.2773 31.8168C10.688 31.8636 10.1246 31.5676 9.82931 31.0561L3.87539 20.7436C3.72197 20.4779 3.65491 20.1788 3.6735 19.8839C3.68979 19.6115 3.77954 19.3428 3.94095 19.1092L9.89563 10.4583C10.1575 10.0778 10.5771 9.83555 11.0381 9.79877L21.5073 8.96729C21.7902 8.94424 22.0674 9.00119 22.3114 9.12326C22.5761 9.25463 22.8016 9.46224 22.955 9.72801Z" fill="#E53935"/>
<path d="M22.3114 9.12328C22.0674 9.00121 21.7902 8.9443 21.5072 8.96731L11.038 9.79878C10.5771 9.83556 10.1575 10.0778 9.89559 10.4584L9.85468 10.5178L20.252 9.69204C20.5349 9.66899 20.8121 9.72592 21.0561 9.84801C21.3208 9.97936 21.5463 10.187 21.6997 10.4527L27.6537 20.7652C27.949 21.2767 27.9236 21.9126 27.5884 22.3995L21.6746 30.9906L21.7466 30.9849C21.977 30.9668 22.197 30.897 22.3921 30.7843C22.5873 30.6716 22.7582 30.5158 22.889 30.3253L28.8437 21.6748C29.1789 21.1879 29.2042 20.552 28.9089 20.0405L22.955 9.728C22.8016 9.46223 22.5761 9.25463 22.3114 9.12328Z" fill="#D32F2F"/>
<path d="M15.5542 18.9406L22.3923 30.7846C22.1971 30.8973 21.9771 30.9671 21.7468 30.9851L11.2775 31.817C10.6882 31.8639 10.1248 31.5679 9.82948 31.0564L3.87555 20.7439C3.72213 20.4782 3.65507 20.179 3.67366 19.8841L15.5542 18.9406Z" fill="#F44336"/>
<path d="M22.9552 9.72828L28.9093 20.0411C29.2013 20.5469 29.1795 21.1756 28.854 21.6607C28.8509 21.6654 28.8473 21.6704 28.8441 21.6752L22.8892 30.3256C22.7584 30.5161 22.5875 30.6719 22.3923 30.7846L15.5542 18.9406L22.3115 9.12356C22.5762 9.25491 22.8017 9.46251 22.9552 9.72828Z" fill="#D32F2F"/>
<path d="M22.3115 9.12356L21.5464 10.2352C21.603 10.3027 21.6549 10.375 21.6999 10.453L27.654 20.7658C27.946 21.2717 27.9242 21.9003 27.5988 22.3854C27.5956 22.3901 27.592 22.3952 27.5889 22.3999L22.1298 30.33L22.3923 30.7846C22.5875 30.6719 22.7584 30.5161 22.8892 30.3256L28.8441 21.6752C28.8473 21.6704 28.8508 21.6654 28.854 21.6606C29.1795 21.1756 29.2013 20.5469 28.9092 20.041L22.9552 9.72828C22.8017 9.46251 22.5762 9.25491 22.3115 9.12356Z" fill="#C62828"/>
<path d="M23.8592 18.9604C23.5966 18.32 23.001 17.9578 22.5289 18.1514C22.0568 18.345 21.8871 19.0211 22.1497 19.6615C22.4124 20.3019 23.0079 20.6641 23.48 20.4705C23.9521 20.2769 24.1218 19.6008 23.8592 18.9604Z" fill="#F1F1F1"/>
<path d="M14.5985 23.2681C15.0237 22.9903 15.0614 22.2952 14.6827 21.7154C14.304 21.1356 13.6523 20.8907 13.2271 21.1685C12.802 21.4462 12.7643 22.1413 13.143 22.7211C13.5217 23.3009 14.1733 23.5458 14.5985 23.2681Z" fill="#F1F1F1"/>
<path d="M12.3183 29.8371C12.7435 29.5594 12.7812 28.8643 12.4025 28.2845C12.0238 27.7047 11.3721 27.4598 10.9469 27.7375C10.5218 28.0153 10.4841 28.7104 10.8628 29.2902C11.2415 29.87 11.8931 30.1148 12.3183 29.8371Z" fill="#F1F1F1"/>
<path d="M9.48938 17.2213C10.0692 16.8426 10.314 16.191 10.0363 15.7658C9.7586 15.3406 9.06345 15.3029 8.48366 15.6816C7.90388 16.0603 7.65901 16.712 7.93673 17.1372C8.21445 17.5623 8.90959 17.6 9.48938 17.2213Z" fill="#F1F1F1"/>
<path d="M12.175 13.1909C12.7548 12.8122 12.9997 12.1606 12.7219 11.7354C12.4442 11.3102 11.7491 11.2725 11.1693 11.6512C10.5895 12.0299 10.3446 12.6816 10.6224 13.1068C10.9001 13.5319 11.5952 13.5696 12.175 13.1909Z" fill="#F1F1F1"/>
<path d="M17.2614 12.906C17.8412 12.5273 18.0861 11.8756 17.8083 11.4504C17.5306 11.0252 16.8355 10.9876 16.2557 11.3662C15.6759 11.7449 15.431 12.3966 15.7088 12.8218C15.9865 13.247 16.6816 13.2847 17.2614 12.906Z" fill="#F1F1F1"/>
<path d="M14.5876 16.7526C15.1674 16.3739 15.4123 15.7222 15.1345 15.297C14.8568 14.8718 14.1617 14.8341 13.5819 15.2128C13.0021 15.5915 12.7572 16.2432 13.0349 16.6684C13.3127 17.0936 14.0078 17.1313 14.5876 16.7526Z" fill="#F1F1F1"/>
</g>
<defs>
<clipPath id="clip0">
<rect y="16" width="24" height="24" transform="rotate(-30 0 16)" fill="white"/>
</clipPath>
</defs>
</svg>
