<?xml version="1.0" standalone="no"?>
<!DOCTYPE svg PUBLIC "-//W3C//DTD SVG 20010904//EN"
 "http://www.w3.org/TR/2001/REC-SVG-20010904/DTD/svg10.dtd">
<svg version="1.0" xmlns="http://www.w3.org/2000/svg"
 width="640.000000pt" height="640.000000pt" viewBox="0 0 640.000000 640.000000"
 preserveAspectRatio="xMidYMid meet">
<metadata>
Created by potrace 1.11, written by Peter Selinger 2001-2013
</metadata>
<g transform="translate(0.000000,640.000000) scale(0.100000,-0.100000)"
fill="#000000" stroke="none">
<path d="M3060 6381 c-115 -46 -2581 -1226 -2626 -1257 -62 -42 -107 -96 -142
-172 l-27 -57 -3 -1675 c-2 -1453 0 -1681 13 -1725 21 -73 84 -165 142 -207
43 -33 2524 -1222 2648 -1270 40 -16 69 -19 150 -16 100 3 101 3 240 69 77 36
673 319 1324 630 1116 531 1188 567 1238 616 71 69 113 158 125 267 5 47 7
771 6 1682 -3 1541 -4 1601 -22 1649 -26 70 -80 149 -129 190 -28 22 -490 248
-1327 647 -707 336 -1306 620 -1333 630 -65 25 -214 24 -277 -1z m276 -502
c97 -37 164 -122 164 -209 -1 -67 -79 -163 -164 -200 -22 -10 -71 -24 -108
-31 -121 -22 -259 18 -327 96 -40 46 -51 74 -51 131 0 179 266 295 486 213z
m-1177 -565 c103 -31 181 -122 181 -209 0 -170 -249 -293 -459 -225 -197 63
-251 238 -112 363 97 88 247 115 390 71z m2370 -40 c102 -30 181 -121 181
-207 0 -88 -70 -172 -180 -218 -44 -18 -74 -23 -155 -23 -89 -1 -106 2 -160
27 -73 34 -111 69 -136 122 -37 79 -15 160 61 228 97 88 243 115 389 71z
m-1083 -554 c260 -133 115 -431 -209 -430 -102 0 -189 34 -249 97 -81 84 -79
181 6 271 66 71 158 103 288 99 87 -2 102 -6 164 -37z m-993 -1304 c47 -20
102 -82 134 -151 25 -54 28 -71 28 -165 0 -101 -2 -109 -35 -175 -55 -111
-138 -160 -228 -135 -131 35 -209 172 -200 354 6 133 54 224 143 270 37 20
115 21 158 2z m2540 -556 c151 -104 155 -402 7 -547 -114 -111 -259 -85 -330
60 -85 173 -20 419 133 497 56 28 140 24 190 -10z m-3910 -676 c89 -63 132
-163 132 -304 0 -83 -4 -103 -28 -155 -34 -73 -69 -111 -122 -136 -79 -37
-160 -15 -229 61 -116 129 -123 362 -14 494 67 81 177 98 261 40z"/>
</g>
</svg>
